<svg width="70" height="70" viewBox="0 0 70 70" fill="none" xmlns="http://www.w3.org/2000/svg">
<circle cx="35" cy="35" r="35" fill="#1172B9"/>
<path d="M4.82324 23.774L7.69358 20.9098L10.5639 18.0457L20.7001 18.0452C26.2749 18.045 30.84 18.0481 30.8448 18.0524C30.8496 18.0565 30.8515 19.3475 30.8448 23.7826H10.5554V50.1038H4.83181L4.82324 23.774Z" fill="#FFFEFF"/>
<path d="M43.7569 10.2232L8.58984 58.2133L13.1938 62.3894L35.7885 32.0594L31.4679 50.038H38.5509L52.5398 32.3779L48.1838 50.038H55.6917L66.2808 36.9079H69.9285V31.1746H62.5268L59.0916 35.6339L64.0496 15.3195L60.5436 11.1433L42.1986 35.9524L48.3608 10.2232H43.7569Z" fill="#FDCA27"/>
</svg>
