<svg width="242" height="56" viewBox="0 0 242 56" fill="none" xmlns="http://www.w3.org/2000/svg">
<path d="M214.957 12.6818L217.712 9.94635L220.468 7.21094H230.152C236.593 7.21094 239.826 7.2518 239.805 7.33232C239.789 7.39843 238.696 8.64114 234.979 12.731L220.41 12.7395V28.4837L217.802 31.3093C216.368 32.8633 215.153 34.1348 215.104 34.1336C215.055 34.1336 215.001 29.3058 214.957 12.6818Z" fill="#202020"/>
<path d="M3.67676 12.6818L6.37232 10.0064L9.06907 7.33112H27.8361V12.6193H9.13023L9.07027 36.9568L3.73431 37.0169L3.67676 12.6818Z" fill="#202020"/>
<path d="M65.7273 12.7395V10.0353V7.33112L84.613 7.33232L89.949 12.6794V31.6686L84.613 37.0169H74.6306C69.14 37.0169 64.6482 36.9772 64.6482 36.9267C64.6482 36.8775 65.8149 35.6612 69.8318 31.6085H84.5531V12.7395H65.7273Z" fill="#202020"/>
<path d="M95.8245 37.0169V22.174V7.33112H101.22V37.0169H95.8245Z" fill="#202020"/>
<path d="M117.288 37.0169V22.174V7.33112H122.684V37.0169H117.288Z" fill="#202020"/>
<path d="M128.501 12.6818L131.198 10.0064L133.893 7.33112H152.781V12.7395H133.956V31.6085H154.003L148.645 37.0181L128.56 37.0169L128.501 12.6818Z" fill="#202020"/>
<path d="M159.137 37.0181V22.1752V7.33232H164.533V12.5604L169.755 7.33232H185.996V15.0242C185.996 19.2547 185.983 22.7172 185.966 22.7196C185.949 22.722 184.736 21.424 180.6 16.9471V12.7407H164.533V37.0181H159.137Z" fill="#202020"/>
<path d="M188.816 12.6818L191.512 10.0064L194.208 7.33232H212.976V12.6205H194.27L194.21 36.958L188.874 37.0181L188.816 12.6818Z" fill="#202020"/>
<path d="M236.545 16.0193L239.164 13.1817C240.604 11.6217 241.836 10.373 241.9 10.4079C241.977 10.4475 242.014 14.1901 241.995 31.5484L236.658 36.8967L217.375 36.8366L222.269 31.4992L236.598 31.4884L236.545 16.0193Z" fill="#202020"/>
<path d="M28.4908 15.3236C34.0509 7.7219 38.8485 1.16459 39.1531 0.751158L39.7071 0H41.8055C42.959 0 43.9051 0.040863 43.9051 0.0901389C43.9063 0.139415 42.6652 5.39992 41.146 11.7782C39.6279 18.1576 38.4132 23.3892 38.4468 23.4061C38.4804 23.4229 40.1099 21.2596 42.0681 18.5987C44.025 15.9378 47.91 10.6652 55.7749 0H57.6335C58.6551 0 59.4921 0.040863 59.4921 0.0901389C59.4921 0.139415 58.2798 5.18359 56.7965 11.2974C55.3132 17.4124 54.0446 22.6177 53.9786 22.8652C53.9115 23.1128 53.8971 23.3147 53.9463 23.3123C53.9954 23.3111 54.6837 22.4157 56.914 19.3366L78.8574 19.4784L81.4654 22.0876C82.9007 23.5239 84.0734 24.7389 84.0734 24.7882C84.0734 24.8375 78.7183 24.8819 60.2715 24.894L56.3145 29.8264C54.1381 32.5389 51.939 35.2659 50.4989 37.017H47.1414C44.5358 37.017 43.784 36.9834 43.7828 36.8668C43.7816 36.7839 44.6461 33.2012 45.7025 28.9045C46.7601 24.6079 47.651 21.0252 47.6834 20.9423C47.7146 20.8593 47.7002 20.7896 47.651 20.7872C47.6019 20.7848 44.6737 24.4361 34.7308 37.0182L31.4633 37.017C29.6659 37.017 28.1946 37.0038 28.1946 36.987C28.1934 36.9702 29.0867 33.3334 30.1779 28.9045C31.2702 24.4757 32.148 20.7932 32.1276 20.7199C32.1084 20.6478 26.4487 28.2195 7.01023 54.504L3.54365 54.5328C1.6371 54.5497 0.0423044 54.522 0.000336235 54.4727C-0.0428311 54.4235 4.07605 48.7051 9.153 41.7644C14.2288 34.8237 22.9318 22.9253 28.4908 15.3236Z" fill="#FDCA27"/>
<path d="M101.22 24.8783V22.1742V19.47L111.952 19.4688L117.288 24.8783H101.22Z" fill="#FDCA27"/>
<path d="M133.956 24.8783V22.1742V19.47L144.807 19.4688L147.419 22.084C148.857 23.5215 149.993 24.7389 149.948 24.7882C149.901 24.8375 146.284 24.8783 133.956 24.8783Z" fill="#FDCA27"/>
<path d="M164.532 24.8783V22.1742V19.47L178.262 19.4844L180.361 21.7679C181.514 23.0239 182.606 24.2378 183.118 24.8783H164.532Z" fill="#FDCA27"/>
<path d="M28.1953 54.1763V47.0253H32.1244V47.909H29.1534V54.1763H28.1953ZM33.9422 54.1763L36.7501 47.0253H37.7439L40.6385 54.1763H39.5581L38.8497 52.3835H35.6698L34.992 54.1763H33.9422ZM35.9398 51.5458H38.5695L37.2241 48.2154L35.9398 51.5458ZM43.5598 54.1763V47.0253H46.0518C46.5512 47.0253 46.9912 47.1104 47.3717 47.2807C47.7523 47.451 48.0495 47.6978 48.2635 48.0213C48.4809 48.3414 48.5897 48.7262 48.5897 49.1757C48.5897 49.6354 48.4895 50.0236 48.289 50.3403C48.0886 50.657 47.7981 50.8988 47.4176 51.0656C47.037 51.2291 46.575 51.3108 46.0314 51.3108H44.5178V54.1763H43.5598ZM44.5178 50.468H46.062C46.5614 50.468 46.9471 50.3625 47.2188 50.1513C47.494 49.9402 47.6316 49.6218 47.6316 49.1961C47.6316 48.7807 47.4906 48.4572 47.2086 48.2257C46.93 47.9941 46.5512 47.8783 46.0722 47.8783H44.5178V50.468ZM50.6404 54.1763L53.4483 47.0253H54.4421L57.3367 54.1763H56.2563L55.5479 52.3835H52.3679L51.6902 54.1763H50.6404ZM52.6381 51.5458H55.2677L53.9223 48.2154L52.6381 51.5458ZM60.2579 54.1763V47.0253H61.216V49.9317H64.8852V47.0253H65.8433V54.1763H64.8852V50.8153H61.216V54.1763H60.2579ZM70.9836 54.1763V47.909H68.9401V47.0253H73.9853V47.909H71.9417V54.1763H70.9836ZM77.0757 54.1763V47.0253H78.0286V52.5725L81.8253 47.0253H82.7324V54.1763H81.7794V48.5934L77.9726 54.1763H77.0757ZM86.4848 54.1763V47.0253H88.9768C89.4762 47.0253 89.9162 47.1104 90.2967 47.2807C90.6772 47.451 90.9745 47.6978 91.1885 48.0213C91.406 48.3414 91.5147 48.7262 91.5147 49.1757C91.5147 49.6354 91.4144 50.0236 91.2141 50.3403C91.0136 50.657 90.7231 50.8988 90.3426 51.0656C89.9621 51.2291 89.5001 51.3108 88.9564 51.3108H87.4429V54.1763H86.4848ZM87.4429 50.468H88.987C89.4864 50.468 89.872 50.3625 90.1439 50.1513C90.4191 49.9402 90.5566 49.6218 90.5566 49.1961C90.5566 48.7807 90.4156 48.4572 90.1337 48.2257C89.855 47.9941 89.4762 47.8783 88.9972 47.8783H87.4429V50.468ZM97.9917 54.3296C97.4582 54.3296 96.9639 54.2359 96.5086 54.0486C96.0568 53.8579 95.661 53.594 95.3213 53.2569C94.985 52.9198 94.7233 52.5248 94.5365 52.0719C94.3496 51.619 94.2561 51.1286 94.2561 50.6008C94.2561 50.0696 94.3496 49.5775 94.5365 49.1246C94.7233 48.6717 94.985 48.2767 95.3213 47.9396C95.661 47.6025 96.0568 47.3403 96.5086 47.153C96.9639 46.9657 97.4582 46.8721 97.9917 46.8721C98.5217 46.8721 99.0126 46.9674 99.4644 47.1581C99.9163 47.3488 100.312 47.6144 100.652 47.9549C100.992 48.2955 101.255 48.6922 101.442 49.1451C101.632 49.5946 101.727 50.0798 101.727 50.6008C101.727 51.1286 101.632 51.619 101.442 52.0719C101.255 52.5248 100.992 52.9198 100.652 53.2569C100.312 53.594 99.9163 53.8579 99.4644 54.0486C99.0126 54.2359 98.5217 54.3296 97.9917 54.3296ZM97.9917 53.4153C98.3755 53.4153 98.7322 53.3488 99.0619 53.216C99.3947 53.0832 99.6853 52.8942 99.9332 52.6491C100.181 52.4005 100.375 52.1025 100.514 51.7552C100.657 51.4079 100.728 51.0231 100.728 50.6008C100.728 50.0321 100.606 49.5367 100.361 49.1144C100.12 48.6922 99.7922 48.3653 99.3778 48.1337C98.9633 47.8988 98.5013 47.7813 97.9917 47.7813C97.6077 47.7813 97.2493 47.8494 96.9163 47.9856C96.5868 48.1184 96.2963 48.3091 96.045 48.5577C95.7969 48.8028 95.6032 49.0991 95.464 49.4464C95.3247 49.7904 95.255 50.1752 95.255 50.6008C95.255 51.1661 95.3756 51.6599 95.6169 52.0821C95.8615 52.5044 96.191 52.833 96.6055 53.0679C97.0199 53.2995 97.4821 53.4153 97.9917 53.4153ZM105.034 54.1763V47.0253H107.379C108.048 47.0253 108.59 47.1785 109.004 47.485C109.422 47.7881 109.631 48.2359 109.631 48.8284C109.631 49.0565 109.575 49.2762 109.463 49.4873C109.351 49.695 109.206 49.8772 109.03 50.0338C108.856 50.1905 108.676 50.3012 108.489 50.3659C108.88 50.4816 109.208 50.6979 109.473 51.0146C109.741 51.3312 109.876 51.7245 109.876 52.1945C109.876 52.5793 109.779 52.9198 109.585 53.216C109.395 53.5123 109.121 53.7473 108.765 53.9209C108.411 54.0912 107.992 54.1763 107.506 54.1763H105.034ZM105.992 53.3897H107.333C107.859 53.3897 108.25 53.2876 108.505 53.0832C108.763 52.8789 108.892 52.5657 108.892 52.1434C108.892 51.7314 108.761 51.4181 108.5 51.2035C108.242 50.9856 107.837 50.8766 107.287 50.8766H105.992V53.3897ZM105.992 50.1207H107.221C107.516 50.1207 107.774 50.073 107.995 49.9777C108.216 49.8823 108.386 49.7461 108.505 49.569C108.627 49.3886 108.688 49.1723 108.688 48.9203C108.688 48.5594 108.559 48.2835 108.301 48.0928C108.046 47.9022 107.681 47.8068 107.205 47.8068H105.992V50.1207ZM112.423 54.1763L115.231 47.0253H116.225L119.12 54.1763H118.039L117.331 52.3835H114.151L113.473 54.1763H112.423ZM114.421 51.5458H117.051L115.705 48.2154L114.421 51.5458ZM122.041 54.1763V47.0253H122.999V49.9317H126.668V47.0253H127.627V54.1763H126.668V50.8153H122.999V54.1763H122.041ZM131.381 54.1763V47.0253H132.339V49.9317H136.008V47.0253H136.966V54.1763H136.008V50.8153H132.339V54.1763H131.381ZM140.72 54.1763V47.0253H141.678V49.8908H143.161C143.657 49.8908 144.095 49.976 144.476 50.1462C144.86 50.3165 145.159 50.5634 145.373 50.8869C145.59 51.207 145.699 51.5917 145.699 52.0412C145.699 52.3852 145.643 52.6899 145.531 52.9555C145.419 53.2212 145.252 53.4459 145.031 53.6298C144.814 53.8103 144.547 53.9465 144.231 54.0384C143.915 54.1304 143.552 54.1763 143.141 54.1763H140.72ZM141.678 53.3335H143.171C143.671 53.3335 144.056 53.228 144.328 53.0168C144.603 52.8057 144.741 52.4873 144.741 52.0617C144.741 51.6462 144.6 51.3227 144.318 51.0912C144.039 50.8596 143.661 50.7438 143.181 50.7438H141.678V53.3335ZM146.723 54.1763V47.0253H147.681V54.1763H146.723ZM151.433 54.1763V47.0253H155.907V47.8834H152.391V50.0134H155.454V50.8358H152.391V53.3131H155.938V54.1763H151.433ZM163.821 54.1763V47.0253H164.754L167.73 51.8522H167.363L170.237 47.0253H171.145V54.1763H170.207L170.217 48.3329L170.405 48.3942L167.857 52.5673H167.118L164.54 48.3942L164.688 48.3329L164.698 54.1763H163.821ZM178.194 54.3296C177.662 54.3296 177.167 54.2359 176.712 54.0486C176.26 53.8579 175.865 53.594 175.524 53.2569C175.188 52.9198 174.927 52.5248 174.74 52.0719C174.553 51.619 174.459 51.1286 174.459 50.6008C174.459 50.0696 174.553 49.5775 174.74 49.1246C174.927 48.6717 175.188 48.2767 175.524 47.9396C175.865 47.6025 176.26 47.3403 176.712 47.153C177.167 46.9657 177.662 46.8721 178.194 46.8721C178.724 46.8721 179.216 46.9674 179.668 47.1581C180.119 47.3488 180.516 47.6144 180.855 47.9549C181.195 48.2955 181.458 48.6922 181.645 49.1451C181.835 49.5946 181.931 50.0798 181.931 50.6008C181.931 51.1286 181.835 51.619 181.645 52.0719C181.458 52.5248 181.195 52.9198 180.855 53.2569C180.516 53.594 180.119 53.8579 179.668 54.0486C179.216 54.2359 178.724 54.3296 178.194 54.3296ZM178.194 53.4153C178.579 53.4153 178.936 53.3488 179.265 53.216C179.599 53.0832 179.889 52.8942 180.137 52.6491C180.384 52.4005 180.578 52.1025 180.717 51.7552C180.86 51.4079 180.932 51.0231 180.932 50.6008C180.932 50.0321 180.81 49.5367 180.565 49.1144C180.323 48.6922 179.996 48.3653 179.581 48.1337C179.167 47.8988 178.704 47.7813 178.194 47.7813C177.811 47.7813 177.452 47.8494 177.12 47.9856C176.79 48.1184 176.5 48.3091 176.248 48.5577C176 48.8028 175.807 49.0991 175.667 49.4464C175.528 49.7904 175.458 50.1752 175.458 50.6008C175.458 51.1661 175.579 51.6599 175.82 52.0821C176.065 52.5044 176.395 52.833 176.808 53.0679C177.223 53.2995 177.685 53.4153 178.194 53.4153ZM194.568 55.9998V54.1763H193.829V53.2927H195.471V55.9998H194.568ZM185.238 54.1763V47.0253H186.196V53.2927H189.315V47.0253H190.273V53.2927H193.381V47.0253H194.339V54.1763H185.238ZM198.549 54.1763V47.0253H199.507V49.9317H203.176V47.0253H204.134V54.1763H203.176V50.8153H199.507V54.1763H198.549ZM211.18 54.3296C210.647 54.3296 210.153 54.2359 209.697 54.0486C209.245 53.8579 208.849 53.594 208.51 53.2569C208.173 52.9198 207.912 52.5248 207.725 52.0719C207.537 51.619 207.445 51.1286 207.445 50.6008C207.445 50.0696 207.537 49.5775 207.725 49.1246C207.912 48.6717 208.173 48.2767 208.51 47.9396C208.849 47.6025 209.245 47.3403 209.697 47.153C210.153 46.9657 210.647 46.8721 211.18 46.8721C211.71 46.8721 212.201 46.9674 212.653 47.1581C213.105 47.3488 213.501 47.6144 213.84 47.9549C214.18 48.2955 214.443 48.6922 214.63 49.1451C214.821 49.5946 214.915 50.0798 214.915 50.6008C214.915 51.1286 214.821 51.619 214.63 52.0719C214.443 52.5248 214.18 52.9198 213.84 53.2569C213.501 53.594 213.105 53.8579 212.653 54.0486C212.201 54.2359 211.71 54.3296 211.18 54.3296ZM211.18 53.4153C211.564 53.4153 211.92 53.3488 212.25 53.216C212.583 53.0832 212.873 52.8942 213.122 52.6491C213.37 52.4005 213.563 52.1025 213.703 51.7552C213.846 51.4079 213.917 51.0231 213.917 50.6008C213.917 50.0321 213.794 49.5367 213.55 49.1144C213.309 48.6922 212.98 48.3653 212.566 48.1337C212.152 47.8988 211.69 47.7813 211.18 47.7813C210.797 47.7813 210.438 47.8494 210.105 47.9856C209.775 48.1184 209.485 48.3091 209.233 48.5577C208.985 48.8028 208.792 49.0991 208.653 49.4464C208.514 49.7904 208.444 50.1752 208.444 50.6008C208.444 51.1661 208.564 51.6599 208.805 52.0821C209.049 52.5044 209.379 52.833 209.794 53.0679C210.208 53.2995 210.671 53.4153 211.18 53.4153ZM221.554 54.3296C220.816 54.3296 220.171 54.1763 219.617 53.8699C219.067 53.56 218.639 53.1258 218.333 52.5673C218.031 52.0055 217.878 51.35 217.878 50.6008C217.878 50.0594 217.97 49.5622 218.149 49.1093C218.329 48.653 218.583 48.258 218.913 47.9243C219.243 47.5906 219.631 47.3318 220.08 47.1479C220.532 46.964 221.025 46.8721 221.558 46.8721C222.085 46.8721 222.545 46.9385 222.94 47.0713C223.333 47.2007 223.674 47.3863 223.959 47.628L223.449 48.4146C223.218 48.2069 222.949 48.052 222.644 47.9498C222.338 47.8477 222 47.7966 221.629 47.7966C221.212 47.7966 220.833 47.8613 220.494 47.9907C220.153 48.1201 219.863 48.3074 219.622 48.5526C219.384 48.7943 219.201 49.0872 219.072 49.4311C218.942 49.775 218.877 50.1615 218.877 50.5906C218.877 51.1831 218.991 51.6888 219.219 52.1076C219.45 52.5265 219.777 52.8466 220.197 53.0679C220.62 53.2859 221.117 53.3948 221.69 53.3948C222.061 53.3948 222.416 53.3403 222.756 53.2314C223.099 53.119 223.421 52.9368 223.719 52.6848L224.168 53.5021C223.818 53.7779 223.425 53.9856 222.99 54.1252C222.558 54.2615 222.08 54.3296 221.554 54.3296ZM228.65 54.1763V47.909H226.607V47.0253H231.651V47.909H229.608V54.1763H228.65ZM234.742 54.1763V47.0253H235.695V52.5725L239.492 47.0253H240.399V54.1763H239.445V48.5934L235.639 54.1763H234.742Z" fill="#202020"/>
</svg>
