<svg width="35" height="35" viewBox="0 0 35 35" fill="none" xmlns="http://www.w3.org/2000/svg">
<g clip-path="url(#clip0_139_59)">
<path d="M8.74967 30.6248C10.3605 30.6248 11.6663 29.319 11.6663 27.7082C11.6663 26.0973 10.3605 24.7915 8.74967 24.7915C7.13884 24.7915 5.83301 26.0973 5.83301 27.7082C5.83301 29.319 7.13884 30.6248 8.74967 30.6248Z" stroke="#FDCA27" stroke-width="2" stroke-linecap="round" stroke-linejoin="round"/>
<path d="M26.2497 10.2083C27.8605 10.2083 29.1663 8.9025 29.1663 7.29167C29.1663 5.68084 27.8605 4.375 26.2497 4.375C24.6388 4.375 23.333 5.68084 23.333 7.29167C23.333 8.9025 24.6388 10.2083 26.2497 10.2083Z" stroke="#FDCA27" stroke-width="2" stroke-linecap="round" stroke-linejoin="round"/>
<path d="M17.5003 27.7082H24.0628C25.4165 27.7082 26.7148 27.1704 27.672 26.2132C28.6292 25.256 29.167 23.9577 29.167 22.604C29.167 21.2503 28.6292 19.952 27.672 18.9948C26.7148 18.0376 25.4165 17.4998 24.0628 17.4998H12.3962C11.0424 17.4998 9.74419 16.9621 8.78697 16.0049C7.82975 15.0476 7.29199 13.7494 7.29199 12.3957C7.29199 11.042 7.82975 9.7437 8.78697 8.78648C9.74419 7.82926 11.0424 7.2915 12.3962 7.2915H17.5003" stroke="#FDCA27" stroke-width="2" stroke-linecap="round" stroke-linejoin="round"/>
</g>
<defs>
<clipPath id="clip0_139_59">
<rect width="35" height="35" fill="white"/>
</clipPath>
</defs>
</svg>
