<svg width="242" height="56" viewBox="0 0 242 56" fill="none" xmlns="http://www.w3.org/2000/svg">
<path d="M214.957 12.6819L217.712 9.94653L220.468 7.21111H230.152C236.593 7.21111 239.826 7.25198 239.805 7.3325C239.789 7.3986 238.696 8.64132 234.979 12.7312L220.41 12.7396V28.4839L217.802 31.3095C216.368 32.8634 215.153 34.135 215.104 34.1338C215.055 34.1338 215.001 29.306 214.957 12.6819Z" fill="white"/>
<path d="M3.67676 12.6819L6.37232 10.0066L9.06907 7.3313H27.8361V12.6194H9.13023L9.07027 36.957L3.73431 37.017L3.67676 12.6819Z" fill="white"/>
<path d="M65.7273 12.7396V10.0355V7.3313L84.613 7.3325L89.949 12.6795V31.6688L84.613 37.017H74.6306C69.14 37.017 64.6482 36.9774 64.6482 36.9269C64.6482 36.8776 65.8149 35.6614 69.8318 31.6087H84.5531V12.7396H65.7273Z" fill="white"/>
<path d="M95.8245 37.017V22.1742V7.3313H101.22V37.017H95.8245Z" fill="white"/>
<path d="M117.288 37.017V22.1742V7.3313H122.684V37.017H117.288Z" fill="white"/>
<path d="M128.501 12.6819L131.198 10.0066L133.893 7.3313H152.781V12.7396H133.956V31.6087H154.003L148.645 37.0182L128.56 37.017L128.501 12.6819Z" fill="white"/>
<path d="M159.137 37.0182V22.1754V7.3325H164.533V12.5606L169.755 7.3325H185.996V15.0244C185.996 19.2549 185.983 22.7174 185.966 22.7198C185.949 22.7222 184.736 21.4242 180.6 16.9473V12.7408H164.533V37.0182H159.137Z" fill="white"/>
<path d="M188.816 12.6819L191.512 10.0066L194.208 7.3325H212.976V12.6206H194.27L194.21 36.9582L188.874 37.0182L188.816 12.6819Z" fill="white"/>
<path d="M236.545 16.0195L239.164 13.1819C240.604 11.6219 241.836 10.3732 241.9 10.408C241.977 10.4477 242.014 14.1903 241.995 31.5486L236.658 36.8969L217.375 36.8368L222.269 31.4993L236.598 31.4885L236.545 16.0195Z" fill="white"/>
<path d="M28.4908 15.3236C34.0509 7.7219 38.8485 1.16459 39.1531 0.751158L39.7071 0H41.8055C42.959 0 43.9051 0.040863 43.9051 0.0901389C43.9063 0.139415 42.6652 5.39992 41.146 11.7782C39.6279 18.1576 38.4132 23.3892 38.4468 23.4061C38.4804 23.4229 40.1099 21.2596 42.0681 18.5987C44.025 15.9378 47.91 10.6652 55.7749 0H57.6335C58.6551 0 59.4921 0.040863 59.4921 0.0901389C59.4921 0.139415 58.2798 5.18359 56.7965 11.2974C55.3132 17.4124 54.0446 22.6177 53.9786 22.8652C53.9115 23.1128 53.8971 23.3147 53.9463 23.3123C53.9954 23.3111 54.6837 22.4157 56.914 19.3366L78.8574 19.4784L81.4654 22.0876C82.9007 23.5239 84.0734 24.7389 84.0734 24.7882C84.0734 24.8375 78.7183 24.8819 60.2715 24.894L56.3145 29.8264C54.1381 32.5389 51.939 35.2659 50.4989 37.017H47.1414C44.5358 37.017 43.784 36.9834 43.7828 36.8668C43.7816 36.7839 44.6461 33.2012 45.7025 28.9045C46.7601 24.6079 47.651 21.0252 47.6834 20.9423C47.7146 20.8593 47.7002 20.7896 47.651 20.7872C47.6019 20.7848 44.6737 24.4361 34.7308 37.0182L31.4633 37.017C29.6659 37.017 28.1946 37.0038 28.1946 36.987C28.1934 36.9702 29.0867 33.3334 30.1779 28.9045C31.2702 24.4757 32.148 20.7932 32.1276 20.7199C32.1084 20.6478 26.4487 28.2195 7.01023 54.504L3.54365 54.5328C1.6371 54.5497 0.0423044 54.522 0.000336235 54.4727C-0.0428311 54.4235 4.07605 48.7051 9.153 41.7644C14.2288 34.8237 22.9318 22.9253 28.4908 15.3236Z" fill="#FDCA27"/>
<path d="M101.22 24.8783V22.1742V19.47L111.952 19.4688L117.288 24.8783H101.22Z" fill="#FDCA27"/>
<path d="M133.956 24.8783V22.1742V19.47L144.807 19.4688L147.419 22.084C148.857 23.5215 149.993 24.7389 149.948 24.7882C149.901 24.8375 146.284 24.8783 133.956 24.8783Z" fill="#FDCA27"/>
<path d="M164.532 24.8783V22.1742V19.47L178.262 19.4844L180.361 21.7679C181.514 23.0239 182.606 24.2378 183.118 24.8783H164.532Z" fill="#FDCA27"/>
<path d="M28.1953 54.1765V47.0255H32.1244V47.9091H29.1534V54.1765H28.1953ZM33.9422 54.1765L36.7501 47.0255H37.7439L40.6385 54.1765H39.5581L38.8497 52.3836H35.6698L34.992 54.1765H33.9422ZM35.9398 51.5459H38.5695L37.2241 48.2156L35.9398 51.5459ZM43.5598 54.1765V47.0255H46.0518C46.5512 47.0255 46.9912 47.1106 47.3717 47.2809C47.7523 47.4511 48.0495 47.698 48.2635 48.0215C48.4809 48.3416 48.5897 48.7264 48.5897 49.1759C48.5897 49.6356 48.4895 50.0238 48.289 50.3405C48.0886 50.6572 47.7981 50.8989 47.4176 51.0658C47.037 51.2293 46.575 51.311 46.0314 51.311H44.5178V54.1765H43.5598ZM44.5178 50.4682H46.062C46.5614 50.4682 46.9471 50.3626 47.2188 50.1515C47.494 49.9404 47.6316 49.622 47.6316 49.1963C47.6316 48.7809 47.4906 48.4574 47.2086 48.2258C46.93 47.9943 46.5512 47.8785 46.0722 47.8785H44.5178V50.4682ZM50.6404 54.1765L53.4483 47.0255H54.4421L57.3367 54.1765H56.2563L55.5479 52.3836H52.3679L51.6902 54.1765H50.6404ZM52.6381 51.5459H55.2677L53.9223 48.2156L52.6381 51.5459ZM60.2579 54.1765V47.0255H61.216V49.9319H64.8852V47.0255H65.8433V54.1765H64.8852V50.8155H61.216V54.1765H60.2579ZM70.9836 54.1765V47.9091H68.9401V47.0255H73.9853V47.9091H71.9417V54.1765H70.9836ZM77.0757 54.1765V47.0255H78.0286V52.5726L81.8253 47.0255H82.7324V54.1765H81.7794V48.5936L77.9726 54.1765H77.0757ZM86.4848 54.1765V47.0255H88.9768C89.4762 47.0255 89.9162 47.1106 90.2967 47.2809C90.6772 47.4511 90.9745 47.698 91.1885 48.0215C91.406 48.3416 91.5147 48.7264 91.5147 49.1759C91.5147 49.6356 91.4144 50.0238 91.2141 50.3405C91.0136 50.6572 90.7231 50.8989 90.3426 51.0658C89.9621 51.2293 89.5001 51.311 88.9564 51.311H87.4429V54.1765H86.4848ZM87.4429 50.4682H88.987C89.4864 50.4682 89.872 50.3626 90.1439 50.1515C90.4191 49.9404 90.5566 49.622 90.5566 49.1963C90.5566 48.7809 90.4156 48.4574 90.1337 48.2258C89.855 47.9943 89.4762 47.8785 88.9972 47.8785H87.4429V50.4682ZM97.9917 54.3297C97.4582 54.3297 96.9639 54.2361 96.5086 54.0488C96.0568 53.8581 95.661 53.5942 95.3213 53.2571C94.985 52.92 94.7233 52.525 94.5365 52.072C94.3496 51.6192 94.2561 51.1288 94.2561 50.601C94.2561 50.0698 94.3496 49.5777 94.5365 49.1248C94.7233 48.6719 94.985 48.2769 95.3213 47.9398C95.661 47.6027 96.0568 47.3405 96.5086 47.1532C96.9639 46.9659 97.4582 46.8722 97.9917 46.8722C98.5217 46.8722 99.0126 46.9676 99.4644 47.1583C99.9163 47.349 100.312 47.6146 100.652 47.9551C100.992 48.2956 101.255 48.6923 101.442 49.1452C101.632 49.5947 101.727 50.08 101.727 50.601C101.727 51.1288 101.632 51.6192 101.442 52.072C101.255 52.525 100.992 52.92 100.652 53.2571C100.312 53.5942 99.9163 53.8581 99.4644 54.0488C99.0126 54.2361 98.5217 54.3297 97.9917 54.3297ZM97.9917 53.4154C98.3755 53.4154 98.7322 53.349 99.0619 53.2162C99.3947 53.0834 99.6853 52.8944 99.9332 52.6492C100.181 52.4007 100.375 52.1027 100.514 51.7554C100.657 51.408 100.728 51.0232 100.728 50.601C100.728 50.0323 100.606 49.5369 100.361 49.1146C100.12 48.6923 99.7922 48.3654 99.3778 48.1339C98.9633 47.8989 98.5013 47.7814 97.9917 47.7814C97.6077 47.7814 97.2493 47.8495 96.9163 47.9858C96.5868 48.1186 96.2963 48.3093 96.045 48.5578C95.7969 48.803 95.6032 49.0993 95.464 49.4466C95.3247 49.7905 95.255 50.1753 95.255 50.601C95.255 51.1663 95.3756 51.66 95.6169 52.0823C95.8615 52.5045 96.191 52.8331 96.6055 53.0681C97.0199 53.2996 97.4821 53.4154 97.9917 53.4154ZM105.034 54.1765V47.0255H107.379C108.048 47.0255 108.59 47.1787 109.004 47.4852C109.422 47.7883 109.631 48.236 109.631 48.8286C109.631 49.0567 109.575 49.2763 109.463 49.4875C109.351 49.6952 109.206 49.8774 109.03 50.034C108.856 50.1907 108.676 50.3013 108.489 50.366C108.88 50.4818 109.208 50.698 109.473 51.0147C109.741 51.3314 109.876 51.7247 109.876 52.1946C109.876 52.5794 109.779 52.92 109.585 53.2162C109.395 53.5125 109.121 53.7474 108.765 53.9211C108.411 54.0914 107.992 54.1765 107.506 54.1765H105.034ZM105.992 53.3899H107.333C107.859 53.3899 108.25 53.2877 108.505 53.0834C108.763 52.8791 108.892 52.5658 108.892 52.1436C108.892 51.7315 108.761 51.4182 108.5 51.2037C108.242 50.9858 107.837 50.8768 107.287 50.8768H105.992V53.3899ZM105.992 50.1208H107.221C107.516 50.1208 107.774 50.0732 107.995 49.9778C108.216 49.8825 108.386 49.7463 108.505 49.5692C108.627 49.3887 108.688 49.1725 108.688 48.9205C108.688 48.5595 108.559 48.2837 108.301 48.093C108.046 47.9023 107.681 47.807 107.205 47.807H105.992V50.1208ZM112.423 54.1765L115.231 47.0255H116.225L119.12 54.1765H118.039L117.331 52.3836H114.151L113.473 54.1765H112.423ZM114.421 51.5459H117.051L115.705 48.2156L114.421 51.5459ZM122.041 54.1765V47.0255H122.999V49.9319H126.668V47.0255H127.627V54.1765H126.668V50.8155H122.999V54.1765H122.041ZM131.381 54.1765V47.0255H132.339V49.9319H136.008V47.0255H136.966V54.1765H136.008V50.8155H132.339V54.1765H131.381ZM140.72 54.1765V47.0255H141.678V49.891H143.161C143.657 49.891 144.095 49.9761 144.476 50.1464C144.86 50.3166 145.159 50.5635 145.373 50.887C145.59 51.2071 145.699 51.5919 145.699 52.0414C145.699 52.3853 145.643 52.6901 145.531 52.9557C145.419 53.2213 145.252 53.4461 145.031 53.63C144.814 53.8104 144.547 53.9466 144.231 54.0386C143.915 54.1305 143.552 54.1765 143.141 54.1765H140.72ZM141.678 53.3337H143.171C143.671 53.3337 144.056 53.2281 144.328 53.017C144.603 52.8059 144.741 52.4875 144.741 52.0618C144.741 51.6464 144.6 51.3229 144.318 51.0913C144.039 50.8598 143.661 50.744 143.181 50.744H141.678V53.3337ZM146.723 54.1765V47.0255H147.681V54.1765H146.723ZM151.433 54.1765V47.0255H155.907V47.8836H152.391V50.0136H155.454V50.8359H152.391V53.3133H155.938V54.1765H151.433ZM163.821 54.1765V47.0255H164.754L167.73 51.8524H167.363L170.237 47.0255H171.145V54.1765H170.207L170.217 48.3331L170.405 48.3944L167.857 52.5675H167.118L164.54 48.3944L164.688 48.3331L164.698 54.1765H163.821ZM178.194 54.3297C177.662 54.3297 177.167 54.2361 176.712 54.0488C176.26 53.8581 175.865 53.5942 175.524 53.2571C175.188 52.92 174.927 52.525 174.74 52.072C174.553 51.6192 174.459 51.1288 174.459 50.601C174.459 50.0698 174.553 49.5777 174.74 49.1248C174.927 48.6719 175.188 48.2769 175.524 47.9398C175.865 47.6027 176.26 47.3405 176.712 47.1532C177.167 46.9659 177.662 46.8722 178.194 46.8722C178.724 46.8722 179.216 46.9676 179.668 47.1583C180.119 47.349 180.516 47.6146 180.855 47.9551C181.195 48.2956 181.458 48.6923 181.645 49.1452C181.835 49.5947 181.931 50.08 181.931 50.601C181.931 51.1288 181.835 51.6192 181.645 52.072C181.458 52.525 181.195 52.92 180.855 53.2571C180.516 53.5942 180.119 53.8581 179.668 54.0488C179.216 54.2361 178.724 54.3297 178.194 54.3297ZM178.194 53.4154C178.579 53.4154 178.936 53.349 179.265 53.2162C179.599 53.0834 179.889 52.8944 180.137 52.6492C180.384 52.4007 180.578 52.1027 180.717 51.7554C180.86 51.408 180.932 51.0232 180.932 50.601C180.932 50.0323 180.81 49.5369 180.565 49.1146C180.323 48.6923 179.996 48.3654 179.581 48.1339C179.167 47.8989 178.704 47.7814 178.194 47.7814C177.811 47.7814 177.452 47.8495 177.12 47.9858C176.79 48.1186 176.5 48.3093 176.248 48.5578C176 48.803 175.807 49.0993 175.667 49.4466C175.528 49.7905 175.458 50.1753 175.458 50.601C175.458 51.1663 175.579 51.66 175.82 52.0823C176.065 52.5045 176.395 52.8331 176.808 53.0681C177.223 53.2996 177.685 53.4154 178.194 53.4154ZM194.568 56V54.1765H193.829V53.2928H195.471V56H194.568ZM185.238 54.1765V47.0255H186.196V53.2928H189.315V47.0255H190.273V53.2928H193.381V47.0255H194.339V54.1765H185.238ZM198.549 54.1765V47.0255H199.507V49.9319H203.176V47.0255H204.134V54.1765H203.176V50.8155H199.507V54.1765H198.549ZM211.18 54.3297C210.647 54.3297 210.153 54.2361 209.697 54.0488C209.245 53.8581 208.849 53.5942 208.51 53.2571C208.173 52.92 207.912 52.525 207.725 52.072C207.537 51.6192 207.445 51.1288 207.445 50.601C207.445 50.0698 207.537 49.5777 207.725 49.1248C207.912 48.6719 208.173 48.2769 208.51 47.9398C208.849 47.6027 209.245 47.3405 209.697 47.1532C210.153 46.9659 210.647 46.8722 211.18 46.8722C211.71 46.8722 212.201 46.9676 212.653 47.1583C213.105 47.349 213.501 47.6146 213.84 47.9551C214.18 48.2956 214.443 48.6923 214.63 49.1452C214.821 49.5947 214.915 50.08 214.915 50.601C214.915 51.1288 214.821 51.6192 214.63 52.072C214.443 52.525 214.18 52.92 213.84 53.2571C213.501 53.5942 213.105 53.8581 212.653 54.0488C212.201 54.2361 211.71 54.3297 211.18 54.3297ZM211.18 53.4154C211.564 53.4154 211.92 53.349 212.25 53.2162C212.583 53.0834 212.873 52.8944 213.122 52.6492C213.37 52.4007 213.563 52.1027 213.703 51.7554C213.846 51.408 213.917 51.0232 213.917 50.601C213.917 50.0323 213.794 49.5369 213.55 49.1146C213.309 48.6923 212.98 48.3654 212.566 48.1339C212.152 47.8989 211.69 47.7814 211.18 47.7814C210.797 47.7814 210.438 47.8495 210.105 47.9858C209.775 48.1186 209.485 48.3093 209.233 48.5578C208.985 48.803 208.792 49.0993 208.653 49.4466C208.514 49.7905 208.444 50.1753 208.444 50.601C208.444 51.1663 208.564 51.66 208.805 52.0823C209.049 52.5045 209.379 52.8331 209.794 53.0681C210.208 53.2996 210.671 53.4154 211.18 53.4154ZM221.554 54.3297C220.816 54.3297 220.171 54.1765 219.617 53.87C219.067 53.5601 218.639 53.126 218.333 52.5675C218.031 52.0056 217.878 51.3501 217.878 50.601C217.878 50.0595 217.97 49.5624 218.149 49.1095C218.329 48.6532 218.583 48.2582 218.913 47.9245C219.243 47.5907 219.631 47.3319 220.08 47.1481C220.532 46.9642 221.025 46.8722 221.558 46.8722C222.085 46.8722 222.545 46.9386 222.94 47.0714C223.333 47.2008 223.674 47.3864 223.959 47.6282L223.449 48.4148C223.218 48.2071 222.949 48.0522 222.644 47.95C222.338 47.8478 222 47.7968 221.629 47.7968C221.212 47.7968 220.833 47.8615 220.494 47.9909C220.153 48.1203 219.863 48.3075 219.622 48.5527C219.384 48.7945 219.201 49.0874 219.072 49.4313C218.942 49.7752 218.877 50.1617 218.877 50.5908C218.877 51.1833 218.991 51.689 219.219 52.1078C219.45 52.5266 219.777 52.8468 220.197 53.0681C220.62 53.286 221.117 53.395 221.69 53.395C222.061 53.395 222.416 53.3405 222.756 53.2315C223.099 53.1192 223.421 52.937 223.719 52.685L224.168 53.5023C223.818 53.7781 223.425 53.9858 222.99 54.1254C222.558 54.2616 222.08 54.3297 221.554 54.3297ZM228.65 54.1765V47.9091H226.607V47.0255H231.651V47.9091H229.608V54.1765H228.65ZM234.742 54.1765V47.0255H235.695V52.5726L239.492 47.0255H240.399V54.1765H239.445V48.5936L235.639 54.1765H234.742Z" fill="white"/>
</svg>
