<svg width="35" height="35" viewBox="0 0 35 35" fill="none" xmlns="http://www.w3.org/2000/svg">
<path d="M7.5 24.8333H6.16667C4.69391 24.8333 3.5 23.6394 3.5 22.1667V10.1667C3.5 8.69391 4.69391 7.5 6.16667 7.5H18.1667C19.6394 7.5 20.8333 8.69391 20.8333 10.1667V22.1667C20.8333 23.6394 19.6394 24.8333 18.1667 24.8333H16.8333M22.8333 24.8333H22.1667C21.4303 24.8333 20.8333 24.2364 20.8333 23.5V12.1667C20.8333 11.4303 21.4303 10.8333 22.1667 10.8333H25.5258C25.9309 10.8333 26.314 11.0175 26.567 11.3337L31.2078 17.1348C31.397 17.3712 31.5 17.6649 31.5 17.9677V23.5C31.5 24.2364 30.903 24.8333 30.1667 24.8333M15.5 24.1667C15.5 26.0076 14.0076 27.5 12.1667 27.5C10.3257 27.5 8.83333 26.0076 8.83333 24.1667C8.83333 22.3257 10.3257 20.8333 12.1667 20.8333C14.0076 20.8333 15.5 22.3257 15.5 24.1667ZM29.5 24.1667C29.5 26.0076 28.0076 27.5 26.1667 27.5C24.3257 27.5 22.8333 26.0076 22.8333 24.1667C22.8333 22.3257 24.3257 20.8333 26.1667 20.8333C28.0076 20.8333 29.5 22.3257 29.5 24.1667Z" stroke="white" stroke-width="2" stroke-linecap="round"/>
</svg>
