<svg width="35" height="35" viewBox="0 0 35 35" fill="none" xmlns="http://www.w3.org/2000/svg">
<g clip-path="url(#clip0_143_582)">
<path d="M10.2084 14.5834H14.5834V10.2084L9.47928 5.10428C11.1121 4.32447 12.9465 4.07004 14.7299 4.37602C16.5133 4.682 18.1579 5.53335 19.4374 6.81282C20.7169 8.0923 21.5682 9.73697 21.8742 11.5204C22.1802 13.3038 21.9258 15.1382 21.1459 16.7709L29.8959 25.5209C30.4761 26.1011 30.802 26.888 30.802 27.7084C30.802 28.5289 30.4761 29.3158 29.8959 29.8959C29.3158 30.4761 28.5289 30.802 27.7084 30.802C26.888 30.802 26.1011 30.4761 25.5209 29.8959L16.7709 21.1459C15.1382 21.9258 13.3038 22.1802 11.5204 21.8742C9.73697 21.5682 8.0923 20.7169 6.81282 19.4374C5.53335 18.1579 4.682 16.5133 4.37602 14.7299C4.07004 12.9465 4.32447 11.1121 5.10428 9.47928L10.2084 14.5834Z" stroke="white" stroke-width="2" stroke-linecap="round" stroke-linejoin="round"/>
</g>
<defs>
<clipPath id="clip0_143_582">
<rect width="35" height="35" fill="white"/>
</clipPath>
</defs>
</svg>
