<svg width="35" height="35" viewBox="0 0 35 35" fill="none" xmlns="http://www.w3.org/2000/svg">
<g clip-path="url(#clip0_143_603)">
<path d="M8.75 20.4165V11.6665C8.75 10.5062 9.21094 9.39338 10.0314 8.57291C10.8519 7.75244 11.9647 7.2915 13.125 7.2915C14.2853 7.2915 15.3981 7.75244 16.2186 8.57291C17.0391 9.39338 17.5 10.5062 17.5 11.6665V23.3332C17.5 24.4935 17.9609 25.6063 18.7814 26.4268C19.6019 27.2472 20.7147 27.7082 21.875 27.7082C23.0353 27.7082 24.1481 27.2472 24.9686 26.4268C25.7891 25.6063 26.25 24.4935 26.25 23.3332V14.5832" stroke="white" stroke-width="2" stroke-linecap="round" stroke-linejoin="round"/>
<path d="M29.1663 7.29167C29.1663 5.68084 27.8605 4.375 26.2497 4.375C24.6388 4.375 23.333 5.68084 23.333 7.29167V11.6667C23.333 13.2775 24.6388 14.5833 26.2497 14.5833C27.8605 14.5833 29.1663 13.2775 29.1663 11.6667V7.29167Z" stroke="white" stroke-width="2" stroke-linecap="round" stroke-linejoin="round"/>
<path d="M11.6663 23.3332C11.6663 21.7223 10.3605 20.4165 8.74967 20.4165C7.13884 20.4165 5.83301 21.7223 5.83301 23.3332V27.7082C5.83301 29.319 7.13884 30.6248 8.74967 30.6248C10.3605 30.6248 11.6663 29.319 11.6663 27.7082V23.3332Z" stroke="white" stroke-width="2" stroke-linecap="round" stroke-linejoin="round"/>
</g>
<defs>
<clipPath id="clip0_143_603">
<rect width="35" height="35" fill="white"/>
</clipPath>
</defs>
</svg>
