<svg width="35" height="35" viewBox="0 0 35 35" fill="none" xmlns="http://www.w3.org/2000/svg">
<g clip-path="url(#clip0_143_595)">
<path d="M13.125 17.5002L16.0417 20.4168L21.875 14.5835" stroke="white" stroke-width="2" stroke-linecap="round" stroke-linejoin="round"/>
<path d="M17.4998 4.375C20.9062 7.38876 25.3522 8.95791 29.8956 8.75C30.5571 11.0002 30.7595 13.3605 30.4908 15.6905C30.2221 18.0205 29.4878 20.2727 28.3314 22.3133C27.1751 24.3539 25.6204 26.1412 23.7596 27.569C21.8989 28.9969 19.7701 30.0361 17.4998 30.625C15.2295 30.0361 13.1007 28.9969 11.24 27.569C9.37923 26.1412 7.8245 24.3539 6.66817 22.3133C5.51183 20.2727 4.77749 18.0205 4.50878 15.6905C4.24007 13.3605 4.44248 11.0002 5.10397 8.75C9.64744 8.95791 14.0934 7.38876 17.4998 4.375" stroke="white" stroke-width="2" stroke-linecap="round" stroke-linejoin="round"/>
</g>
<defs>
<clipPath id="clip0_143_595">
<rect width="35" height="35" fill="white"/>
</clipPath>
</defs>
</svg>
